<?xml version="1.0" encoding="iso-8859-1"?>
<!-- Uploaded to: SVG Repo, www.svgrepo.com, Generator: SVG Repo Mixer Tools -->
<svg version="1.1" id="Layer_1" xmlns="http://www.w3.org/2000/svg" xmlns:xlink="http://www.w3.org/1999/xlink" 
	 viewBox="0 0 489.91 489.91" xml:space="preserve">
<g id="XMLID_1140_">
	<g id="XMLID_1364_">
		<path style="fill:#B17F4A;" d="M155.28,217.706V482.41h77.854L342.13,365.629l62.283-0.365v59.542
			c0,31.457,25.501,56.958,56.958,56.958h5.325V364.9v-38.198V163.509L155.28,217.706z"/>
	</g>
	<g id="XMLID_1131_">
		<rect x="443.341" y="163.208" style="fill:#CA9E67;" width="23.356" height="319.031"/>
	</g>
	<g id="XMLID_1159_">
		<path style="fill:#FFFFFF;" d="M186.289,195.41l0.133-1.06l-62.283-7.785l-31.142-23.356l-31.142-38.927l23.356-85.64
			L46.284,69.783l-15.571,54.498l7.785,54.498l31.142,38.927l38.927,31.142l63.467,7.052c2.132,0.461,4.332,0.734,6.602,0.734
			c17.199,0,31.142-13.943,31.142-31.142C209.778,210.949,199.766,198.835,186.289,195.41z"/>
	</g>
	<g id="XMLID_1143_">
		<rect x="342.811" y="318.917" style="fill:#CA9E67;" width="23.356" height="46.713"/>
	</g>
	<g id="XMLID_1362_">
		<polygon style="fill:#CA9E67;" points="264.276,287.775 240.92,287.775 240.92,241.062 310.988,241.062 		"/>
	</g>
	<g id="XMLID_1347_">
		<rect x="155.28" y="412.342" style="fill:#CA9E67;" width="31.142" height="70.069"/>
	</g>
	<g id="XMLID_1363_">
		<polygon style="fill:#CA9E67;" points="217.278,341.987 149.656,342.273 149.451,311.417 217.564,311.417 		"/>
	</g>
	<g id="XMLID_885_">
		<path style="fill:#1D1D1B;" d="M178.786,262.936h-24.104c-72.492,0-131.469-58.977-131.469-131.468S82.189,0,154.682,0v0.009
			C155.13,0.003,155.578,0,156.028,0v15c-47.132,0-85.476,38.344-85.476,85.476s38.344,85.476,85.476,85.476h22.758
			c21.225,0,38.492,17.268,38.492,38.492S200.011,262.936,178.786,262.936z M65.81,56.27
			c-17.208,20.305-27.597,46.561-27.597,75.198c0,64.221,52.248,116.468,116.469,116.468h24.104
			c12.954,0,23.492-10.538,23.492-23.492s-10.538-23.492-23.492-23.492h-22.758c-55.402,0-100.476-45.073-100.476-100.476
			C55.553,84.623,59.243,69.617,65.81,56.27z"/>
	</g>
	<g id="XMLID_887_">
		<rect x="140.294" y="212.316" style="fill:#1D1D1B;" width="15" height="43.119"/>
	</g>
	<g id="XMLID_886_">
		<rect x="112.746" y="223.096" style="fill:#1D1D1B;" width="15" height="26.95"/>
	</g>
	<g id="XMLID_606_">
		
			<rect x="334.631" y="67.475" transform="matrix(-0.1961 -0.9806 0.9806 -0.1961 226.2732 558.6455)" style="fill:#1D1D1B;" width="15" height="238.192"/>
	</g>
	<polygon style="fill:#1D1D1B;" points="217.564,311.417 178.637,311.417 178.637,326.417 186.422,326.417 186.422,341.987 
		201.992,341.987 201.992,326.417 217.564,326.417 	"/>
	<g id="XMLID_602_">
		<path style="fill:#1D1D1B;" d="M240.959,295.274l-0.078-15c18.235-0.095,34.514-11.703,44.958-21.424
			c3.821-3.558,7.15-7.111,9.903-10.288H240.92v-15h83.853l-7.487,11.573C315.967,247.174,284.499,295.048,240.959,295.274z"/>
	</g>
	<g>
		<path style="fill:#1D1D1B;" d="M411.914,420.127v-61.998H349.63v-39.212h-15v43.756L229.876,474.91H162.78V272.204h-15V489.91
			h88.613l108.995-116.781h51.525v46.998c0,38.478,31.305,69.783,69.783,69.783v-15C436.489,474.91,411.914,450.335,411.914,420.127
			z"/>
		<rect x="178.922" y="451.269" style="fill:#1D1D1B;" width="15" height="25.356"/>
	</g>
</g>
</svg>